%TF.GenerationSoftware,KiCad,Pcbnew,9.0.4*%
%TF.CreationDate,2025-10-02T23:38:02+05:30*%
%TF.ProjectId,Class_D Amplifier,436c6173-735f-4442-9041-6d706c696669,rev?*%
%TF.SameCoordinates,Original*%
%TF.FileFunction,Soldermask,Bot*%
%TF.FilePolarity,Negative*%
%FSLAX46Y46*%
G04 Gerber Fmt 4.6, Leading zero omitted, Abs format (unit mm)*
G04 Created by KiCad (PCBNEW 9.0.4) date 2025-10-02 23:38:02*
%MOMM*%
%LPD*%
G01*
G04 APERTURE LIST*
G04 Aperture macros list*
%AMRoundRect*
0 Rectangle with rounded corners*
0 $1 Rounding radius*
0 $2 $3 $4 $5 $6 $7 $8 $9 X,Y pos of 4 corners*
0 Add a 4 corners polygon primitive as box body*
4,1,4,$2,$3,$4,$5,$6,$7,$8,$9,$2,$3,0*
0 Add four circle primitives for the rounded corners*
1,1,$1+$1,$2,$3*
1,1,$1+$1,$4,$5*
1,1,$1+$1,$6,$7*
1,1,$1+$1,$8,$9*
0 Add four rect primitives between the rounded corners*
20,1,$1+$1,$2,$3,$4,$5,0*
20,1,$1+$1,$4,$5,$6,$7,0*
20,1,$1+$1,$6,$7,$8,$9,0*
20,1,$1+$1,$8,$9,$2,$3,0*%
G04 Aperture macros list end*
%ADD10RoundRect,0.250000X-0.550000X-0.550000X0.550000X-0.550000X0.550000X0.550000X-0.550000X0.550000X0*%
%ADD11C,1.600000*%
%ADD12RoundRect,0.250000X0.550000X-0.550000X0.550000X0.550000X-0.550000X0.550000X-0.550000X-0.550000X0*%
%ADD13R,2.500000X4.500000*%
%ADD14O,2.500000X4.500000*%
%ADD15C,2.000000*%
%ADD16RoundRect,0.249999X0.850001X0.850001X-0.850001X0.850001X-0.850001X-0.850001X0.850001X-0.850001X0*%
%ADD17C,2.200000*%
%ADD18R,1.905000X2.000000*%
%ADD19O,1.905000X2.000000*%
%ADD20RoundRect,0.249999X-0.850001X-0.850001X0.850001X-0.850001X0.850001X0.850001X-0.850001X0.850001X0*%
%ADD21RoundRect,0.250000X0.550000X0.550000X-0.550000X0.550000X-0.550000X-0.550000X0.550000X-0.550000X0*%
G04 APERTURE END LIST*
D10*
%TO.C,C9*%
X122847349Y-118000000D03*
D11*
X126347349Y-118000000D03*
%TD*%
D10*
%TO.C,U1*%
X113380000Y-74960000D03*
D11*
X113380000Y-77500000D03*
X113380000Y-80040000D03*
X113380000Y-82580000D03*
X121000000Y-82580000D03*
X121000000Y-80040000D03*
X121000000Y-77500000D03*
X121000000Y-74960000D03*
%TD*%
D12*
%TO.C,C16*%
X177000000Y-83500000D03*
D11*
X177000000Y-80000000D03*
%TD*%
D10*
%TO.C,C4*%
X70500000Y-104000000D03*
D11*
X74000000Y-104000000D03*
%TD*%
D10*
%TO.C,C21*%
X140000000Y-61500000D03*
D11*
X143500000Y-61500000D03*
%TD*%
D13*
%TO.C,Q3*%
X141000000Y-105500000D03*
D14*
X146450000Y-105500000D03*
X151900000Y-105500000D03*
%TD*%
D11*
%TO.C,R6*%
X82420000Y-106000000D03*
X87500000Y-106000000D03*
%TD*%
%TO.C,R2*%
X88080000Y-70500000D03*
X83000000Y-70500000D03*
%TD*%
D10*
%TO.C,D2*%
X125000000Y-59000000D03*
D11*
X132620000Y-59000000D03*
%TD*%
D10*
%TO.C,C1*%
X70264698Y-62920000D03*
D11*
X73764698Y-62920000D03*
%TD*%
D15*
%TO.C,J2*%
X162250000Y-90000000D03*
%TD*%
D16*
%TO.C,D1*%
X168160000Y-81500000D03*
D17*
X158000000Y-81500000D03*
%TD*%
D11*
%TO.C,R5*%
X88080000Y-97500000D03*
X83000000Y-97500000D03*
%TD*%
%TO.C,R9*%
X124420000Y-106000000D03*
X129500000Y-106000000D03*
%TD*%
D10*
%TO.C,C13*%
X174000000Y-118000000D03*
D11*
X177500000Y-118000000D03*
%TD*%
D13*
%TO.C,Q2*%
X154100000Y-96000000D03*
D14*
X159550000Y-96000000D03*
X165000000Y-96000000D03*
%TD*%
D10*
%TO.C,C10*%
X136347349Y-118000000D03*
D11*
X139847349Y-118000000D03*
%TD*%
D16*
%TO.C,D6*%
X154160000Y-71500000D03*
D17*
X144000000Y-71500000D03*
%TD*%
D11*
%TO.C,R3*%
X82920000Y-78500000D03*
X88000000Y-78500000D03*
%TD*%
D10*
%TO.C,C6*%
X82500000Y-117500000D03*
D11*
X86000000Y-117500000D03*
%TD*%
D15*
%TO.C,L1*%
X160500000Y-106500000D03*
X164500000Y-106500000D03*
%TD*%
D11*
%TO.C,R1*%
X82965000Y-63000000D03*
X88045000Y-63000000D03*
%TD*%
%TO.C,R13*%
X101080000Y-97500000D03*
X96000000Y-97500000D03*
%TD*%
D12*
%TO.C,C15*%
X176500000Y-94652651D03*
D11*
X176500000Y-91152651D03*
%TD*%
D10*
%TO.C,C5*%
X70250000Y-117150000D03*
D11*
X73750000Y-117150000D03*
%TD*%
D15*
%TO.C,J4*%
X175000000Y-61500000D03*
%TD*%
%TO.C,J5*%
X180500000Y-62000000D03*
%TD*%
D18*
%TO.C,Q1*%
X96920000Y-78500000D03*
D19*
X99460000Y-78500000D03*
X102000000Y-78500000D03*
%TD*%
D15*
%TO.C,J6*%
X157000000Y-106250000D03*
%TD*%
D11*
%TO.C,R8*%
X116080000Y-106000000D03*
X111000000Y-106000000D03*
%TD*%
D20*
%TO.C,D4*%
X158500000Y-71500000D03*
D17*
X168660000Y-71500000D03*
%TD*%
D11*
%TO.C,R10*%
X126000000Y-66000000D03*
X131080000Y-66000000D03*
%TD*%
D10*
%TO.C,C7*%
X96000000Y-117500000D03*
D11*
X99500000Y-117500000D03*
%TD*%
%TO.C,R11*%
X111920000Y-66000000D03*
X117000000Y-66000000D03*
%TD*%
D18*
%TO.C,Q4*%
X95960000Y-67450000D03*
D19*
X98500000Y-67450000D03*
X101040000Y-67450000D03*
%TD*%
D12*
%TO.C,C14*%
X176000000Y-107000000D03*
D11*
X176000000Y-103500000D03*
%TD*%
D10*
%TO.C,U2*%
X129695000Y-75190000D03*
D11*
X129695000Y-77730000D03*
X129695000Y-80270000D03*
X129695000Y-82810000D03*
X137315000Y-82810000D03*
X137315000Y-80270000D03*
X137315000Y-77730000D03*
X137315000Y-75190000D03*
%TD*%
D20*
%TO.C,D5*%
X108000000Y-97500000D03*
D17*
X118160000Y-97500000D03*
%TD*%
D10*
%TO.C,D3*%
X110380000Y-58500000D03*
D11*
X118000000Y-58500000D03*
%TD*%
D15*
%TO.C,J1*%
X88500000Y-57000000D03*
%TD*%
D10*
%TO.C,C3*%
X70264698Y-88500000D03*
D11*
X73764698Y-88500000D03*
%TD*%
D10*
%TO.C,C2*%
X70264698Y-76000000D03*
D11*
X73764698Y-76000000D03*
%TD*%
D10*
%TO.C,C11*%
X149500000Y-118000000D03*
D11*
X153000000Y-118000000D03*
%TD*%
D10*
%TO.C,C20*%
X151500000Y-61500000D03*
D11*
X155000000Y-61500000D03*
%TD*%
D10*
%TO.C,C8*%
X109500000Y-118000000D03*
D11*
X113000000Y-118000000D03*
%TD*%
%TO.C,R7*%
X102080000Y-106000000D03*
X97000000Y-106000000D03*
%TD*%
%TO.C,R12*%
X101035000Y-88000000D03*
X95955000Y-88000000D03*
%TD*%
%TO.C,R15*%
X92000000Y-106920000D03*
X92000000Y-112000000D03*
%TD*%
D15*
%TO.C,J3*%
X184000000Y-89000000D03*
%TD*%
D12*
%TO.C,C17*%
X177500000Y-71000000D03*
D11*
X177500000Y-67500000D03*
%TD*%
%TO.C,R4*%
X82920000Y-88000000D03*
X88000000Y-88000000D03*
%TD*%
D21*
%TO.C,C18*%
X167000000Y-61500000D03*
D11*
X163500000Y-61500000D03*
%TD*%
D21*
%TO.C,C12*%
X165500000Y-118500000D03*
D11*
X162000000Y-118500000D03*
%TD*%
M02*
